<?xml version="1.0" standalone="no"?>
<!DOCTYPE svg PUBLIC "-//W3C//DTD SVG 20010904//EN"
 "http://www.w3.org/TR/2001/REC-SVG-20010904/DTD/svg10.dtd">
<svg version="1.0" xmlns="http://www.w3.org/2000/svg"
 width="172.000000pt" height="32.000000pt" viewBox="0 0 172.000000 32.000000"
 preserveAspectRatio="xMidYMid meet">

<g transform="translate(0.000000,32.000000) scale(0.100000,-0.100000)"
fill="#000000" stroke="none">
<path d="M0 160 l0 -160 860 0 860 0 0 160 0 160 -860 0 -860 0 0 -160z m295
105 c21 -20 25 -33 24 -77 -1 -29 -5 -64 -9 -78 -7 -23 -8 -23 -10 10 -1 19
-6 46 -10 60 -7 21 -8 19 -9 -17 -1 -49 -14 -61 -34 -33 l-14 21 -6 -21 c-4
-17 -13 -20 -54 -20 -58 0 -73 12 -74 59 l-1 36 -9 -30 c-5 -16 -6 -38 -3 -47
3 -10 2 -23 -2 -30 -11 -18 -22 24 -23 90 -1 44 3 57 24 77 22 22 32 25 105
25 73 0 83 -3 105 -25z m262 -100 l31 -95 -28 0 c-20 0 -31 6 -35 20 -9 28
-61 28 -70 0 -4 -14 -15 -20 -35 -20 l-28 0 31 95 31 95 36 0 36 0 31 -95z
m793 72 c0 -19 5 -24 29 -24 43 0 61 -19 61 -65 0 -68 -11 -78 -85 -78 l-65 0
0 95 0 95 30 0 c25 0 30 -4 30 -23z m160 -72 c0 -95 0 -95 -25 -95 -25 0 -25
0 -25 95 0 95 0 95 25 95 25 0 25 0 25 -95z m-817 46 c13 -5 27 -17 31 -27 6
-14 1 -16 -34 -11 -51 7 -52 -6 -2 -19 28 -7 38 -15 40 -32 5 -36 -15 -52 -67
-52 -47 0 -71 13 -71 37 0 15 46 18 55 3 8 -13 25 -13 25 -1 0 5 -13 12 -29
16 -38 8 -54 28 -46 55 11 33 55 47 98 31z m150 0 c13 -5 27 -17 31 -27 6 -14
1 -16 -34 -11 -51 7 -52 -6 -2 -19 28 -7 38 -15 40 -32 5 -36 -15 -52 -67 -52
-47 0 -71 13 -71 37 0 15 46 18 55 3 8 -13 25 -13 25 -1 0 5 -13 12 -29 16
-38 8 -54 28 -46 55 11 33 55 47 98 31z m174 -14 c6 -7 15 -24 18 -39 7 -28 7
-28 -46 -28 -50 0 -52 -1 -36 -17 13 -13 20 -14 29 -5 16 16 48 15 48 -1 0
-24 -24 -37 -66 -37 -33 0 -47 5 -58 22 -29 41 -15 101 27 118 25 11 67 4 84
-13z m144 13 c13 -8 25 -7 40 1 16 8 28 8 45 0 22 -10 24 -17 24 -76 0 -63 -1
-65 -25 -65 -23 0 -25 3 -25 50 0 38 -4 50 -15 50 -11 0 -15 -12 -15 -50 0
-47 -2 -50 -25 -50 -23 0 -25 3 -25 50 0 38 -4 50 -15 50 -11 0 -15 -12 -15
-50 0 -49 -1 -50 -30 -50 l-30 0 0 70 0 71 35 -3 c19 -1 37 1 41 5 9 9 12 9
35 -3z m473 -1 c20 -9 46 -52 46 -75 0 -2 -22 -4 -50 -4 -28 0 -50 -5 -50 -10
0 -16 30 -24 43 -11 15 15 47 14 47 -2 0 -38 -87 -52 -122 -20 -37 33 -19 107
32 126 23 8 27 8 54 -4z"/>
<path d="M128 213 c18 -2 45 -2 60 0 15 2 0 4 -33 4 -33 0 -45 -2 -27 -4z"/>
<path d="M244 198 l-19 -23 25 20 c14 11 27 21 29 22 2 2 0 3 -6 3 -5 0 -18
-10 -29 -22z"/>
<path d="M485 177 c-4 -10 -5 -21 -1 -24 10 -10 18 4 13 24 -4 17 -4 17 -12 0z"/>
<path d="M1357 173 c-4 -3 -7 -19 -7 -35 0 -23 4 -29 18 -26 21 4 28 41 9 56
-8 7 -17 9 -20 5z"/>
<path d="M945 170 c-4 -6 5 -10 20 -10 15 0 24 4 20 10 -3 6 -12 10 -20 10 -8
0 -17 -4 -20 -10z"/>
<path d="M1585 170 c-3 -5 3 -10 14 -10 12 0 21 5 21 10 0 6 -6 10 -14 10 -8
0 -18 -4 -21 -10z"/>
</g>
</svg>
