<?xml version="1.0" standalone="no"?>
<!DOCTYPE svg PUBLIC "-//W3C//DTD SVG 20010904//EN"
 "http://www.w3.org/TR/2001/REC-SVG-20010904/DTD/svg10.dtd">
<svg version="1.0" xmlns="http://www.w3.org/2000/svg"
 width="172.000000pt" height="32.000000pt" viewBox="0 0 172.000000 32.000000"
 preserveAspectRatio="xMidYMid meet">

<g transform="translate(0.000000,32.000000) scale(0.100000,-0.100000)"
fill="#000000" stroke="none">
<path d="M128 213 c18 -2 45 -2 60 0 15 2 0 4 -33 4 -33 0 -45 -2 -27 -4z"/>
<path d="M255 209 c-4 -6 -13 -8 -21 -5 -8 3 -11 0 -7 -10 5 -13 8 -12 27 3
11 10 23 19 25 20 2 2 -1 3 -7 3 -6 0 -14 -5 -17 -11z"/>
<path d="M90 157 c-3 -26 -1 -52 5 -58 7 -7 5 -9 -5 -7 -8 2 -18 10 -22 18 -5
11 -7 8 -7 -8 -1 -13 10 -34 24 -47 21 -22 33 -25 102 -25 107 0 125 13 117
83 -9 75 -23 104 -23 50 -1 -49 -14 -62 -34 -33 l-14 21 -6 -21 c-4 -17 -13
-20 -55 -20 -56 0 -69 10 -74 60 -3 32 -4 31 -8 -13z"/>
</g>
</svg>
